<svg width="36" height="25" viewBox="0 0 36 25" fill="none" xmlns="http://www.w3.org/2000/svg">
<path d="M10.0065 12.0289C13.2305 12.0289 15.3105 14.5249 15.3105 17.7489C15.3105 21.2849 12.7105 24.1969 8.23847 24.1969C3.76647 24.1969 0.230469 20.5569 0.230469 14.9409C0.230469 9.11687 3.97447 3.39687 13.2305 0.588867V3.29287C7.40647 4.85287 4.18247 8.49287 4.18247 11.8209C4.18247 13.0689 4.70247 13.7969 5.43047 13.7969C6.57447 13.7969 7.19847 12.0289 10.0065 12.0289ZM29.9745 12.0289C33.1985 12.0289 35.2785 14.5249 35.2785 17.7489C35.2785 21.2849 32.6785 24.1969 28.2065 24.1969C23.7345 24.1969 20.1985 20.5569 20.1985 14.9409C20.1985 9.11687 23.9425 3.39687 33.1985 0.588867V3.29287C27.3745 4.85287 24.1505 8.49287 24.1505 11.8209C24.1505 13.0689 24.6705 13.7969 25.3985 13.7969C26.6465 13.7969 27.1665 12.0289 29.9745 12.0289Z" fill="black"/>
</svg>
