<?xml version="1.0" encoding="utf-8"?>
<!-- Generator: Adobe Illustrator 26.5.0, SVG Export Plug-In . SVG Version: 6.00 Build 0)  -->
<svg version="1.1" id="Capa_1" xmlns="http://www.w3.org/2000/svg" xmlns:xlink="http://www.w3.org/1999/xlink" x="0px" y="0px"
	 viewBox="0 0 966 139.5" style="enable-background:new 0 0 966 139.5;" xml:space="preserve">
<path d="M15.2,94h43.9c0,9.6,4,15.6,14.4,15.6c10.6,0,13.7-5,13.7-10.2c0-4.2-1.7-7.3-6.5-8.5c-4.2-1.3-13.5-2.5-21.9-3.5
	c-9.4-1.3-22.5-4-30.4-8.8c-8.3-5-13.5-14-13.5-27.1c0-25.8,21.5-43.1,61.6-43.1c46.4,0,59.1,17.3,59.1,44.2H94.3
	c0-10.2-5.2-15-14.6-15c-8.8,0-13.5,4.2-13.5,9.4c0,4,1.7,6.5,4.6,8.1c3.7,1.5,12.7,2.9,23.7,4.4c13.5,1.7,23.5,3.8,30.8,7.9
	c9.2,5.4,14.4,14.2,14.4,27.1c0,23.5-12.7,44.2-63.7,44.2C24.7,138.8,15.2,116.1,15.2,94z"/>
<path d="M147,72.9c0-38.9,24.6-64.4,71.2-64.4c46.9,0,71.6,25.6,71.6,64.4c0,40.2-23.5,66-71.6,66C171.4,138.8,147,114.6,147,72.9z
	 M237.2,73.3c0-19.4-8.5-26.7-19-26.7c-10.4,0-18.9,7.3-18.9,26.7c0,20.6,8.5,27.5,18.9,27.5C228.7,100.8,237.2,93.8,237.2,73.3z"/>
<path d="M300.5,10.4h60.2c47.7,0,56.2,16.4,56.2,33.1c0,11.5-3.8,23.3-20.8,27.1v0.2c20,2.9,25.6,16.3,25.6,28.3
	c0,21.7-9.8,37.9-57.7,37.9h-63.5V10.4z M361.3,63.4c7.7,0,11.7-2.9,11.7-10.4c0-7.7-4.2-10.6-12.3-10.6h-9.4v21H361.3z
	 M361.7,104.8c9,0,12.1-3.8,12.1-11.5c0-6.7-3.8-10.2-12.3-10.2h-10.2v21.7H361.7z"/>
<path d="M432.1,10.4h60.8c47.7,0,62.5,15.4,62.5,38.9c0,13.7-5.4,25.8-23.3,29.8v0.4c18.7,3.7,22.7,15,22.7,27.9v29.6h-50.4v-31.4
	c0-8.8-3.3-11.9-11-11.9h-10.6v43.3h-50.8V10.4z M493,72.3c8.7,0,12.9-3.7,12.9-12.1c0-7.5-3.8-11.7-13.1-11.7h-10v23.9H493z"/>
<path d="M566.9,10.4h96.8v38.1h-46V64h32.5v19h-32.5v15.8h47.5v38.1h-98.3V10.4z"/>
<path d="M717.1,10.4h71.4L801,60.9h0.4l12.7-50.6H876v126.6h-50.6l0.6-69.2h-0.4l-18.9,69.2H776l-18.7-69.2H757l0.6,69.2h-40.4V10.4
	z"/>
<path d="M891,10.4h50.4v126.6H891V10.4z"/>
</svg>
