<?xml version="1.0" encoding="utf-8"?>
<!-- Generator: Adobe Illustrator 26.5.0, SVG Export Plug-In . SVG Version: 6.00 Build 0)  -->
<svg version="1.1" id="Capa_1" xmlns="http://www.w3.org/2000/svg" xmlns:xlink="http://www.w3.org/1999/xlink" x="0px" y="0px"
	 viewBox="0 0 1319 217" style="enable-background:new 0 0 1319 217;" xml:space="preserve">
<g>
	<path d="M4.5,120.9c0-50.9,29.3-79.7,82.8-79.7c56.3,0,77.4,30,77.4,64.2c0,1.9,0,5.4-0.2,8.7h-49.9c0.2-2.1,0.2-3.8,0.2-4.7
		c0-15.5-10.1-21.8-21.6-21.8c-15,0-24.9,9.8-24.9,33.3c0,23.9,10.3,32.8,24.6,32.8c11.5,0,21.8-5.9,21.8-21.1V128h49.9v7.3
		c0,37-22,64.9-77.4,64.9C28.1,200.2,4.5,167.8,4.5,120.9z"/>
	<path d="M173.7,119.8c0-47.4,30-78.5,86.7-78.5c57.2,0,87.2,31.2,87.2,78.5c0,49-28.6,80.4-87.2,80.4
		C203.5,200.2,173.7,170.6,173.7,119.8z M283.7,120.2c0-23.7-10.3-32.6-23.2-32.6c-12.7,0-23,8.9-23,32.6c0,25.1,10.3,33.5,23,33.5
		C273.4,153.8,283.7,145.3,283.7,120.2z"/>
	<path d="M360.8,43.6H445l27.9,73.4h0.5l-1.2-73.4H521v154.3h-80.2l-33.1-87.9h-0.5l2.8,87.9h-49.2V43.6z"/>
	<path d="M535,145.6h53.5c0,11.7,4.9,19,17.6,19c12.9,0,16.6-6.1,16.6-12.4c0-5.2-2.1-8.9-8-10.3c-5.2-1.6-16.4-3-26.7-4.2
		c-11.5-1.6-27.4-4.9-37-10.8c-10.1-6.1-16.4-17.1-16.4-33.1c0-31.4,26.3-52.5,75-52.5c56.5,0,72,21.1,72,53.9h-50.2
		c0-12.4-6.3-18.3-17.8-18.3c-10.8,0-16.4,5.2-16.4,11.5c0,4.9,2.1,8,5.6,9.8c4.5,1.9,15.5,3.5,28.8,5.4c16.4,2.1,28.6,4.7,37.5,9.6
		c11.3,6.6,17.6,17.3,17.6,33.1c0,28.6-15.5,53.9-77.6,53.9C546.5,200.2,535,172.5,535,145.6z"/>
	<path d="M699.9,43.6h117.9V90h-56v19h39.6v23.2h-39.6v19.2h57.9v46.4H699.9V43.6z"/>
	<path d="M828.6,137.4c0-5.9,0.2-14.1,0.7-23.9h48.3l-0.2,21.1c0,14.8,4.2,19.2,12.4,19.2c7.3,0,12-4,12-19.7V43.6h62.6v84.2
		c0,47.6-22,72.4-69.4,72.4C849,200.2,828.6,179.3,828.6,137.4z"/>
	<path d="M976.3,119.8c0-47.4,30-78.5,86.7-78.5c57.2,0,87.2,31.2,87.2,78.5c0,49-28.6,80.4-87.2,80.4
		C1006,200.2,976.3,170.6,976.3,119.8z M1086.2,120.2c0-23.7-10.3-32.6-23.2-32.6c-12.7,0-23,8.9-23,32.6c0,25.1,10.3,33.5,23,33.5
		C1075.9,153.8,1086.2,145.3,1086.2,120.2z"/>
	<path d="M1159.9,145.6h53.5c0,11.7,4.9,19,17.6,19c12.9,0,16.6-6.1,16.6-12.4c0-5.2-2.1-8.9-8-10.3c-5.2-1.6-16.4-3-26.7-4.2
		c-11.5-1.6-27.4-4.9-37-10.8c-10.1-6.1-16.4-17.1-16.4-33.1c0-31.4,26.3-52.5,75-52.5c56.5,0,72,21.1,72,53.9h-50.2
		c0-12.4-6.3-18.3-17.8-18.3c-10.8,0-16.4,5.2-16.4,11.5c0,4.9,2.1,8,5.6,9.8c4.5,1.9,15.5,3.5,28.8,5.4c16.4,2.1,28.6,4.7,37.5,9.6
		c11.3,6.6,17.6,17.3,17.6,33.1c0,28.6-15.5,53.9-77.6,53.9C1171.3,200.2,1159.9,172.5,1159.9,145.6z"/>
</g>
</svg>
