<svg width="19" height="19" viewBox="0 0 19 19" fill="none" xmlns="http://www.w3.org/2000/svg">
<g clip-path="url(#clip0_2008_548)">
<rect width="17.68" height="17.68" transform="translate(0.660156 0.660156)" fill="#F0F0F0"/>
<path d="M9.50016 2.25205C11.8621 2.25205 12.1418 2.26241 13.0707 2.30384C13.934 2.34183 14.4001 2.48686 14.7109 2.60772C15.1218 2.76656 15.4188 2.95994 15.7261 3.26727C16.0369 3.57805 16.2268 3.87156 16.3857 4.28248C16.5065 4.59327 16.6516 5.06289 16.6896 5.92272C16.731 6.85506 16.7414 7.13477 16.7414 9.49325C16.7414 11.8552 16.731 12.1349 16.6896 13.0638C16.6516 13.9271 16.5065 14.3932 16.3857 14.704C16.2268 15.1149 16.0335 15.4119 15.7261 15.7192C15.4154 16.03 15.1218 16.2199 14.7109 16.3788C14.4001 16.4996 13.9305 16.6447 13.0707 16.6827C12.1383 16.7241 11.8586 16.7345 9.50016 16.7345C7.13822 16.7345 6.85852 16.7241 5.92963 16.6827C5.06634 16.6447 4.60017 16.4996 4.28939 16.3788C3.87847 16.2199 3.5815 16.0266 3.27417 15.7192C2.96339 15.4085 2.77347 15.1149 2.61463 14.704C2.49377 14.3932 2.34873 13.9236 2.31075 13.0638C2.26931 12.1314 2.25895 11.8517 2.25895 9.49325C2.25895 7.13131 2.26931 6.85161 2.31075 5.92272C2.34873 5.05944 2.49377 4.59327 2.61463 4.28248C2.77347 3.87156 2.96684 3.57459 3.27417 3.26727C3.58495 2.95648 3.87847 2.76656 4.28939 2.60772C4.60017 2.48686 5.0698 2.34183 5.92963 2.30384C6.85852 2.26241 7.13822 2.25205 9.50016 2.25205ZM9.50016 0.660156C7.10023 0.660156 6.79981 0.670516 5.85711 0.711953C4.91786 0.753391 4.27213 0.905328 3.71272 1.12287C3.12914 1.35078 2.63534 1.6512 2.145 2.145C1.6512 2.63534 1.35078 3.12914 1.12288 3.70927C0.905328 4.27213 0.753391 4.91441 0.711953 5.85366C0.670516 6.79981 0.660156 7.10023 0.660156 9.50016C0.660156 11.9001 0.670516 12.2005 0.711953 13.1432C0.753391 14.0825 0.905328 14.7282 1.12288 15.2876C1.35078 15.8712 1.6512 16.365 2.145 16.8553C2.63534 17.3457 3.12914 17.6495 3.70927 17.874C4.27213 18.0915 4.91441 18.2435 5.85366 18.2849C6.79636 18.3263 7.09678 18.3367 9.4967 18.3367C11.8966 18.3367 12.197 18.3263 13.1398 18.2849C14.079 18.2435 14.7247 18.0915 15.2841 17.874C15.8643 17.6495 16.3581 17.3457 16.8484 16.8553C17.3388 16.365 17.6426 15.8712 17.8671 15.291C18.0846 14.7282 18.2366 14.0859 18.278 13.1467C18.3194 12.204 18.3298 11.9035 18.3298 9.50361C18.3298 7.10369 18.3194 6.80327 18.278 5.86056C18.2366 4.92131 18.0846 4.27558 17.8671 3.71617C17.6495 3.12914 17.3491 2.63534 16.8553 2.145C16.365 1.65466 15.8712 1.35078 15.291 1.12633C14.7282 0.908781 14.0859 0.756844 13.1467 0.715406C12.2005 0.670516 11.9001 0.660156 9.50016 0.660156Z" fill="black"/>
<path d="M9.49984 4.95947C6.99288 4.95947 4.95898 6.99336 4.95898 9.50033C4.95898 12.0073 6.99288 14.0412 9.49984 14.0412C12.0068 14.0412 14.0407 12.0073 14.0407 9.50033C14.0407 6.99336 12.0068 4.95947 9.49984 4.95947ZM9.49984 12.4458C7.87342 12.4458 6.55433 11.1268 6.55433 9.50033C6.55433 7.87391 7.87342 6.55482 9.49984 6.55482C11.1263 6.55482 12.4454 7.87391 12.4454 9.50033C12.4454 11.1268 11.1263 12.4458 9.49984 12.4458Z" fill="black"/>
<path d="M15.2804 4.77984C15.2804 5.36687 14.8038 5.83995 14.2203 5.83995C13.6332 5.83995 13.1602 5.36342 13.1602 4.77984C13.1602 4.19281 13.6367 3.71973 14.2203 3.71973C14.8038 3.71973 15.2804 4.19626 15.2804 4.77984Z" fill="black"/>
</g>
<defs>
<clipPath id="clip0_2008_548">
<rect width="17.68" height="17.68" fill="white" transform="translate(0.660156 0.660156)"/>
</clipPath>
</defs>
</svg>
