<svg width="19" height="19" viewBox="0 0 19 19" fill="none" xmlns="http://www.w3.org/2000/svg">
<g clip-path="url(#clip0_2008_554)">
<rect width="17.68" height="17.68" transform="translate(0.660156 0.660156)" fill="#F0F0F0"/>
<path d="M18.164 5.96433C18.164 5.96433 17.9914 4.74538 17.4596 4.21014C16.7863 3.5057 16.0335 3.50225 15.6882 3.46081C13.2157 3.28125 9.50361 3.28125 9.50361 3.28125H9.4967C9.4967 3.28125 5.78459 3.28125 3.31216 3.46081C2.96684 3.50225 2.21406 3.5057 1.5407 4.21014C1.00892 4.74538 0.839719 5.96433 0.839719 5.96433C0.839719 5.96433 0.660156 7.39738 0.660156 8.82697V10.1668C0.660156 11.5964 0.836266 13.0294 0.836266 13.0294C0.836266 13.0294 1.00892 14.2484 1.53725 14.7836C2.21061 15.488 3.09461 15.4639 3.48827 15.5398C4.90405 15.6745 9.50016 15.716 9.50016 15.716C9.50016 15.716 13.2157 15.709 15.6882 15.5329C16.0335 15.4915 16.7863 15.488 17.4596 14.7836C17.9914 14.2484 18.164 13.0294 18.164 13.0294C18.164 13.0294 18.3402 11.5998 18.3402 10.1668V8.82697C18.3402 7.39738 18.164 5.96433 18.164 5.96433ZM7.67345 11.7932V6.82416L12.4491 9.31731L7.67345 11.7932Z" fill="black"/>
</g>
<defs>
<clipPath id="clip0_2008_554">
<rect width="17.68" height="17.68" fill="white" transform="translate(0.660156 0.660156)"/>
</clipPath>
</defs>
</svg>
